# 3ds Max Wavefront OBJ Exporter v0.97b - (c)2007 guruware
# File Created: 24.01.2015 17:13:24

mtllib lvl2_test.mtl

#
# object walls
#

v  -49.4763 7.6493 -49.4762
v  -50.5237 7.6493 -50.5237
v  -50.5237 7.6493 -20.5237
v  -49.4763 7.6493 -19.4763
v  -49.4763 0.0459 -49.4763
v  -49.4763 0.0459 -19.4763
v  -50.5237 0.0459 -50.5237
v  -50.5237 0.0459 -20.5237
v  69.4763 7.6493 -49.4763
v  70.5237 7.6493 -50.5237
v  69.4763 0.0459 -49.4763
v  70.5238 0.0459 -50.5237
v  69.4763 7.6493 19.4763
v  70.5237 7.6493 20.5237
v  69.4763 0.0459 19.4763
v  70.5237 0.0459 20.5237
v  49.4772 7.6495 19.4815
v  50.5246 7.6492 20.5290
v  49.4754 0.0460 19.4710
v  50.5228 0.0458 20.5185
v  49.4772 7.6495 39.4815
v  50.5246 7.6492 40.5290
v  49.4754 0.0460 39.4710
v  50.5228 0.0458 40.5185
v  20.5185 7.6495 39.4772
v  19.4710 7.6492 40.5246
v  20.5290 0.0460 39.4754
v  19.4815 0.0458 40.5228
v  20.5185 7.6495 19.4772
v  19.4710 7.6492 20.5246
v  20.5290 0.0460 19.4754
v  19.4815 0.0458 20.5228
v  -49.4815 7.6495 19.4772
v  -50.5290 7.6492 20.5246
v  -49.4710 0.0460 19.4754
v  -50.5185 0.0458 20.5228
v  -49.4815 7.6495 9.4772
v  -50.5290 7.6492 10.5246
v  -49.4710 0.0460 9.4754
v  -50.5185 0.0458 10.5228
v  -69.4817 7.6495 9.4769
v  -70.5287 7.6492 10.5249
v  -69.4713 0.0460 9.4751
v  -70.5183 0.0458 10.5231
v  -69.4769 7.6495 -19.4817
v  -70.5249 7.6492 -20.5287
v  -69.4751 0.0460 -19.4713
v  -70.5231 0.0458 -20.5183
v  -19.5000 7.6577 -19.5000
v  -19.5000 6.0986 -19.5000
v  -19.5000 6.0986 -20.5000
v  -19.5000 7.6577 -20.5000
v  -20.5000 7.6577 -19.5000
v  -20.5000 6.0986 -19.5000
v  -20.5000 7.6577 -20.5000
v  -20.5000 6.0986 -20.5000
v  -20.5000 0.0000 -19.5000
v  -20.5000 0.0000 -20.5000
v  -19.5000 0.0000 -20.5000
v  -19.5000 0.0000 -19.5000
v  -20.5000 7.6577 -0.5000
v  -20.5000 6.0986 -0.5000
v  -20.5000 6.0986 0.5000
v  -20.5000 7.6577 0.5000
v  -19.5000 7.6577 -0.5000
v  -19.5000 6.0986 -0.5000
v  -19.5000 7.6577 0.5000
v  -19.5000 6.0986 0.5000
v  -19.5000 0.0000 -0.5000
v  -19.5000 0.0000 0.5000
v  -20.5000 0.0000 0.5000
v  -20.5000 0.0000 -0.5000
v  20.5000 7.6577 0.5000
v  20.5000 6.0986 0.5000
v  20.5000 6.0986 -0.5000
v  20.5000 7.6577 -0.5000
v  19.5000 7.6577 0.5000
v  19.5000 6.0986 0.5000
v  19.5000 7.6577 -0.5000
v  19.5000 6.0986 -0.5000
v  19.5000 0.0000 0.5000
v  19.5000 0.0000 -0.5000
v  20.5000 0.0000 -0.5000
v  20.5000 0.0000 0.5000
v  -50.0000 7.6577 -19.5000
v  -50.0000 6.0986 -19.5000
v  -50.0000 0.0000 -19.5000
v  -50.0000 0.0000 -20.5000
v  -50.0000 6.0986 -20.5000
v  -50.0000 7.6577 -20.5000
v  -20.5000 7.6577 -6.5582
v  -20.5000 6.0986 -6.5582
v  -20.5000 0.0000 -6.5582
v  -19.5000 0.0000 -6.5582
v  -19.5000 6.0986 -6.5582
v  -19.5000 7.6577 -6.5582
v  2.7907 7.6577 0.5000
v  2.7907 6.0986 0.5000
v  2.7907 0.0000 0.5000
v  2.7907 0.0000 -0.5000
v  2.7907 6.0986 -0.5000
v  2.7907 7.6577 -0.5000
v  20.5000 7.6577 20.0000
v  20.5000 6.0986 20.0000
v  20.5000 0.0000 20.0000
v  19.5000 0.0000 20.0000
v  19.5000 6.0986 20.0000
v  19.5000 7.6577 20.0000
v  -20.5000 0.0000 -13.4418
v  -20.5000 6.0986 -13.4418
v  -19.5000 7.6577 -13.4418
v  -19.5000 6.0986 -13.4418
v  -2.7907 0.0000 0.5000
v  -2.7907 6.0986 0.5000
v  -2.7907 7.6577 -0.5000
v  -2.7907 6.0986 -0.5000
v  -20.5000 7.6577 -13.4418
v  -19.5000 0.0000 -13.4418
v  -2.7907 7.6577 0.5000
v  -2.7907 0.0000 -0.5000
v  -3.2405 7.6000 -20.5000
v  -3.2405 6.0918 -20.5000
v  -3.2405 6.0918 -19.5000
v  -3.2405 7.6000 -19.5000
v  -2.2405 7.6000 -20.5000
v  -2.2405 6.0918 -20.5000
v  -2.2405 7.6000 -19.5000
v  -2.2405 6.0918 -19.5000
v  -2.2405 0.0000 -20.5000
v  -2.2405 0.0000 -19.5000
v  -3.2405 0.0000 -19.5000
v  -3.2405 0.0000 -20.5000
v  20.5839 7.6000 -19.5000
v  20.5839 6.0918 -19.5000
v  20.5839 6.0918 -20.5000
v  20.5839 7.6000 -20.5000
v  19.5839 7.6000 -19.5000
v  19.5839 6.0918 -19.5000
v  19.5839 7.6000 -20.5000
v  19.5839 6.0918 -20.5000
v  19.5839 0.0000 -19.5000
v  19.5839 0.0000 -20.5000
v  20.5839 0.0000 -20.5000
v  20.5839 0.0000 -19.5000
v  19.5839 7.6000 -10.5000
v  19.5839 6.0918 -10.5000
v  19.5839 6.0918 -9.5000
v  19.5839 7.6000 -9.5000
v  20.5839 7.6000 -10.5000
v  20.5839 6.0918 -10.5000
v  20.5839 7.6000 -9.5000
v  20.5839 6.0918 -9.5000
v  20.5839 0.0000 -10.5000
v  20.5839 0.0000 -9.5000
v  19.5839 0.0000 -9.5000
v  19.5839 0.0000 -10.5000
v  29.5839 7.6000 -9.5000
v  29.5839 6.0918 -9.5000
v  30.5839 6.0918 -9.5000
v  30.5839 7.6000 -9.5000
v  29.5839 7.6000 -10.5000
v  29.5839 6.0918 -10.5000
v  30.5839 7.6000 -10.5000
v  30.5839 6.0918 -10.5000
v  29.5839 0.0000 -10.5000
v  30.5839 0.0000 -10.5000
v  30.5839 0.0000 -9.5000
v  29.5839 0.0000 -9.5000
v  -3.2405 7.6000 -32.4630
v  -3.2405 6.0918 -32.4630
v  -3.2405 0.0000 -32.4630
v  -2.2405 0.0000 -32.4630
v  -2.2405 6.0918 -32.4630
v  -2.2405 7.6000 -32.4630
v  -3.2405 6.0918 -49.6308
v  -2.2405 6.0918 -49.6308
v  -2.2405 0.0000 -49.6308
v  -3.2405 0.0000 -49.6308
v  29.5839 7.6000 -50.0000
v  29.5839 6.0918 -50.0000
v  29.5839 0.0000 -50.0000
v  30.5839 0.0000 -50.0000
v  30.5839 6.0918 -50.0000
v  30.5839 7.6000 -50.0000
v  -3.2405 7.6000 -49.6308
v  -3.2405 6.0918 -37.6679
v  -3.2405 7.6000 -37.6679
v  -2.2405 0.0000 -37.6679
v  -3.2405 0.0000 -37.6679
v  -2.2405 6.0918 -37.6679
v  -2.2405 7.6000 -49.6308
v  -2.2405 7.6000 -37.6679
v  50.5000 6.2628 20.0000
v  49.5000 6.2628 20.0000
v  49.5000 0.0000 20.0000
v  50.5000 0.0000 20.0000
v  50.5000 7.6000 9.4443
v  49.5000 7.6000 9.4443
v  49.5000 7.6000 20.0000
v  50.5000 7.6000 20.0000
v  50.5000 6.2628 -50.0000
v  49.5000 6.2628 -50.0000
v  49.5000 7.6000 -50.0000
v  50.5000 7.6000 -50.0000
v  50.5000 0.0000 -39.4443
v  49.5000 0.0000 -39.4443
v  49.5000 0.0000 -50.0000
v  50.5000 0.0000 -50.0000
v  50.5000 6.2628 9.4443
v  49.5000 6.2628 9.4443
v  49.5000 7.6000 -39.4443
v  50.5000 7.6000 -39.4443
v  49.5000 0.0000 9.4443
v  50.5000 0.0000 9.4443
v  50.5000 6.2628 -39.4443
v  49.5000 6.2628 -39.4443
v  50.5000 7.6000 2.5835
v  50.5000 7.6000 -32.5835
v  49.5000 7.6000 -32.5835
v  49.5000 7.6000 2.5835
v  50.5000 0.0000 -32.5835
v  50.5000 0.0000 2.5835
v  49.5000 0.0000 2.5835
v  49.5000 0.0000 -32.5835
v  50.5000 6.2628 -32.5835
v  50.5000 6.2628 2.5835
v  49.5000 6.2628 -32.5835
v  49.5000 6.2628 2.5835
v  50.0000 7.6760 -9.5000
v  50.0000 7.6760 -10.5000
v  50.0000 0.0000 -10.5000
v  50.0000 0.0000 -9.5000
v  70.0000 7.6760 -9.5000
v  70.0000 7.6760 -10.5000
v  70.0000 0.0000 -9.5000
v  70.0000 0.0000 -10.5000
# 236 vertices

vn -0.0000 1.0000 0.0000
vn -0.0000 1.0000 -0.0000
vn 0.7071 -0.0000 0.7071
vn 0.7070 -0.0000 0.7072
vn 0.7071 0.0002 0.7072
vn 0.0000 -1.0000 -0.0000
vn -0.0000 -1.0000 0.0000
vn -0.7071 0.0000 -0.7071
vn -0.7071 -0.0000 -0.7071
vn -0.7072 0.0000 -0.7070
vn -0.7072 -0.0002 -0.7071
vn -0.7071 -0.0000 0.7071
vn -0.7071 0.0000 0.7071
vn 0.0000 -1.0000 0.0000
vn 0.7071 0.0000 -0.7071
vn 0.0000 1.0000 -0.0000
vn 0.0000 1.0000 0.0000
vn -0.7070 -0.0000 -0.7072
vn -0.7071 0.0002 -0.7072
vn 0.7072 0.0000 0.7070
vn 0.7072 -0.0002 0.7071
vn 0.0001 1.0000 0.0001
vn -0.7069 0.0009 -0.7073
vn -0.7075 0.0011 -0.7068
vn -0.0001 -1.0000 -0.0001
vn 0.7073 -0.0009 0.7069
vn 0.7068 -0.0011 0.7075
vn -0.7074 0.0011 -0.7068
vn -0.7069 0.0010 -0.7073
vn 0.7068 -0.0011 0.7074
vn 0.7073 -0.0010 0.7069
vn -0.0001 1.0000 0.0001
vn 0.7069 0.0013 -0.7073
vn 0.7074 0.0011 -0.7068
vn 0.0001 -1.0000 -0.0001
vn -0.7073 -0.0013 0.7069
vn -0.7068 -0.0011 0.7074
vn 0.7068 0.0011 -0.7074
vn -0.7074 -0.0011 0.7068
vn 0.7069 0.0011 -0.7074
vn -0.7074 -0.0011 0.7069
vn 0.7073 0.0010 -0.7069
vn -0.7069 -0.0010 0.7073
vn -0.0001 1.0000 -0.0001
vn 0.7074 0.0013 0.7068
vn 0.7068 0.0009 0.7074
vn 0.0001 -1.0000 0.0001
vn -0.7068 -0.0013 -0.7074
vn -0.7074 -0.0009 -0.7068
vn 1.0000 0.0000 -0.0000
vn 0.0000 0.0000 1.0000
vn -1.0000 0.0000 -0.0000
vn 0.0000 -0.0000 -1.0000
vn 0.0000 0.0000 -1.0000
vn 0.0000 -0.0000 1.0000
# 55 vertex normals

g walls
usemtl wire_115115115
s 2049
f 1//1 2//1 3//1 4//2 
s 4100
f 5//3 1//3 4//4 6//5 
s 8194
f 7//6 5//6 6//7 8//7 
s 4100
f 2//8 7//9 8//10 3//11 
s 2056
f 9//2 10//2 2//1 1//1 
s 4128
f 11//12 9//13 1//3 5//3 
s 8208
f 12//14 11//14 5//6 7//6 
s 4128
f 10//15 12//15 7//9 2//8 
s 2049
f 13//16 14//17 10//2 9//2 
s 4100
f 15//18 13//19 9//13 11//12 
s 8194
f 16//6 15//6 11//14 12//14 
s 4100
f 14//20 16//21 12//15 10//15 
s 2056
f 17//22 18//22 14//17 13//16 
s 4128
f 19//23 17//24 13//19 15//18 
s 8208
f 20//25 19//25 15//6 16//6 
s 4128
f 18//26 20//27 16//21 14//20 
s 2049
f 21//22 22//22 18//22 17//22 
s 4100
f 23//28 21//29 17//24 19//23 
s 8194
f 24//25 23//25 19//25 20//25 
s 4100
f 22//30 24//31 20//27 18//26 
s 2056
f 25//32 26//32 22//22 21//22 
s 4128
f 27//33 25//34 21//29 23//28 
s 8208
f 28//35 27//35 23//25 24//25 
s 4128
f 26//36 28//37 24//31 22//30 
s 2049
f 29//32 30//32 26//32 25//32 
s 4100
f 31//34 29//38 25//34 27//33 
s 8194
f 32//35 31//35 27//35 28//35 
s 4100
f 30//37 32//39 28//37 26//36 
s 2056
f 33//32 34//32 30//32 29//32 
s 4128
f 35//38 33//34 29//38 31//34 
s 8208
f 36//35 35//35 31//35 32//35 
s 4128
f 34//39 36//37 32//39 30//37 
s 2049
f 37//32 38//32 34//32 33//32 
s 4100
f 39//34 37//40 33//34 35//38 
s 8194
f 40//35 39//35 35//35 36//35 
s 4100
f 38//37 40//41 36//37 34//39 
s 2056
f 41//32 42//32 38//32 37//32 
s 4128
f 43//38 41//42 37//40 39//34 
s 8208
f 44//35 43//35 39//35 40//35 
s 4128
f 42//39 44//43 40//41 38//37 
s 2049
f 45//44 46//44 42//32 41//32 
s 4100
f 47//45 45//46 41//42 43//38 
s 8194
f 48//47 47//47 43//35 44//35 
s 4100
f 46//48 48//49 44//43 42//39 
s 2056
f 4//2 3//1 46//44 45//44 
s 4128
f 6//5 4//4 45//46 47//45 
s 8208
f 8//7 6//7 47//47 48//47 
s 4128
f 3//11 8//10 48//49 46//48 
s off
f 49//50 50//50 51//50 52//50 
f 53//51 54//51 50//51 49//51 
f 55//52 56//52 54//52 53//52 
f 52//53 51//53 56//53 55//53 
f 52//16 55//16 53//16 49//16 
f 57//6 58//6 59//6 60//6 
f 61//52 62//52 63//52 64//52 
f 65//54 66//54 62//54 61//54 
f 67//50 68//50 66//50 65//50 
f 64//51 63//51 68//51 67//51 
f 64//16 67//16 65//16 61//16 
f 69//6 70//6 71//6 72//6 
f 73//50 74//50 75//50 76//50 
f 77//51 78//51 74//51 73//51 
f 79//52 80//52 78//52 77//52 
f 76//54 75//54 80//54 79//54 
f 76//16 79//16 77//16 73//16 
f 81//6 82//6 83//6 84//6 
s 1
f 85//51 86//51 54//51 53//51 
s 2
f 87//6 88//6 58//6 57//6 
s 1
f 88//54 89//53 56//53 58//54 
s 2
f 90//16 85//16 53//16 55//16 
s 4
f 54//50 56//50 55//50 53//50 
f 86//52 89//52 88//52 87//52 
s 1
f 91//52 92//52 62//52 61//52 
s 2
f 93//6 94//6 69//6 72//6 
s 1
f 94//50 95//50 66//50 69//50 
s 2
f 96//16 91//16 61//16 65//16 
s 4
f 69//51 66//55 62//55 72//51 
f 50//53 54//53 53//54 49//54 
s 1
f 97//51 98//51 78//51 77//51 
s 2
f 99//6 100//6 82//6 81//6 
s 1
f 100//53 101//54 80//54 82//53 
s 2
f 102//16 97//16 77//16 79//16 
s 4
f 82//50 80//50 78//50 81//50 
f 66//52 68//52 67//52 65//52 
s 1
f 103//50 104//50 74//50 73//50 
s 2
f 105//6 106//6 81//6 84//6 
s 1
f 106//52 107//52 78//52 81//52 
s 2
f 108//16 103//16 73//16 77//16 
s 4
f 74//54 78//54 77//54 73//54 
f 107//51 104//51 103//51 108//51 
s off
f 60//50 59//50 51//50 50//50 
f 57//51 60//51 50//51 54//51 
f 58//52 57//52 54//52 56//52 
f 59//54 58//54 56//54 51//54 
f 72//52 71//52 63//52 62//52 
f 69//53 72//53 62//53 66//53 
f 70//50 69//50 66//50 68//50 
f 71//51 70//51 68//51 63//51 
f 84//50 83//50 75//50 74//50 
f 81//51 84//51 74//51 78//51 
f 82//52 81//52 78//52 80//52 
f 83//53 82//53 80//53 75//53 
s 1
f 87//51 57//51 54//51 86//51 
f 90//53 55//53 56//53 89//53 
s 4
f 57//50 58//50 56//50 54//50 
f 85//52 90//52 89//52 86//52 
s 1
f 57//52 109//52 110//52 54//52 
f 49//50 111//50 112//50 50//50 
s 4
f 65//55 61//55 62//55 66//55 
f 60//53 57//53 54//53 50//53 
s 1
f 70//51 113//51 114//51 68//51 
f 65//54 115//54 116//54 66//54 
s 4
f 79//50 77//50 78//50 80//50 
f 69//52 70//52 68//52 66//52 
s 1
f 105//50 84//50 74//50 104//50 
f 108//52 77//52 78//52 107//52 
s 4
f 84//53 81//53 78//54 74//54 
f 106//55 105//55 104//51 107//51 
s 1
f 53//52 54//52 110//52 117//52 
s 2
f 57//6 60//6 118//6 109//6 
s 1
f 60//50 50//50 112//50 118//50 
s 2
f 49//16 53//16 117//16 111//16 
s 1
f 72//52 62//52 92//52 93//52 
f 65//50 66//50 95//50 96//50 
f 91//52 117//52 110//52 92//52 
s 2
f 96//16 111//16 117//16 91//16 
s 1
f 111//50 96//50 95//50 112//50 
s off
f 110//51 109//51 118//51 112//51 
f 95//6 92//6 110//6 112//6 
f 94//53 93//53 92//53 95//53 
s 1
f 67//51 68//51 114//51 119//51 
s 2
f 70//6 69//6 120//6 113//6 
s 1
f 69//53 66//54 116//54 120//53 
s 2
f 65//16 67//16 119//16 115//16 
s 1
f 81//51 78//51 98//51 99//51 
f 79//54 80//54 101//54 102//54 
f 97//51 119//51 114//51 98//51 
s 2
f 102//16 115//16 119//16 97//16 
s 1
f 115//54 102//54 101//54 116//54 
s off
f 121//52 122//52 123//52 124//52 
f 125//54 126//54 122//54 121//54 
f 127//50 128//50 126//50 125//50 
f 124//51 123//51 128//51 127//51 
f 124//16 127//16 125//16 121//16 
f 129//6 130//6 131//6 132//6 
f 133//50 134//50 135//50 136//50 
f 137//51 138//51 134//51 133//51 
f 139//52 140//52 138//52 137//52 
f 136//54 135//54 140//54 139//54 
f 136//16 139//16 137//16 133//16 
f 141//6 142//6 143//6 144//6 
f 145//52 146//52 147//52 148//52 
f 149//54 150//54 146//54 145//54 
f 151//50 152//50 150//50 149//50 
f 148//51 147//51 152//51 151//51 
f 148//16 151//16 149//16 145//16 
f 153//6 154//6 155//6 156//6 
f 157//51 158//51 159//51 160//51 
f 161//52 162//52 158//52 157//52 
f 163//54 164//54 162//54 161//54 
f 160//50 159//50 164//50 163//50 
f 160//16 163//16 161//16 157//16 
f 165//6 166//6 167//6 168//6 
s 1
f 169//52 170//52 122//52 121//52 
s 2
f 171//6 172//6 129//6 132//6 
s 1
f 172//50 173//50 126//50 129//50 
s 2
f 174//16 169//16 121//16 125//16 
s 4
f 122//51 126//51 125//51 121//51 
f 175//54 176//54 177//54 178//54 
s 1
f 127//51 128//51 138//51 137//51 
s 2
f 130//6 129//6 142//6 141//6 
s 1
f 129//54 126//54 140//54 142//54 
s 2
f 125//16 127//16 137//16 139//16 
s 4
f 142//50 140//50 138//50 141//50 
f 126//52 128//52 127//52 125//52 
s 1
f 137//52 138//52 146//52 145//52 
s 2
f 141//6 144//6 153//6 156//6 
s 1
f 144//50 134//50 150//50 153//50 
s 2
f 133//16 137//16 145//16 149//16 
s 4
f 153//51 150//51 146//51 156//51 
f 134//54 138//54 137//54 133//54 
s 1
f 151//51 152//51 158//51 157//51 
s 2
f 154//6 153//6 165//6 168//6 
s 1
f 153//54 150//54 162//54 165//54 
s 2
f 149//16 151//16 157//16 161//16 
s 4
f 165//50 162//50 158//50 168//50 
f 150//52 152//52 151//52 149//52 
s 1
f 179//52 180//52 162//52 161//52 
s 2
f 181//6 182//6 166//6 165//6 
s 1
f 182//50 183//50 164//50 166//50 
s 2
f 184//16 179//16 161//16 163//16 
s 4
f 162//51 164//51 163//51 161//51 
f 183//54 180//54 179//54 184//54 
s 1
f 185//52 175//52 186//52 187//52 
s 2
f 178//6 177//6 188//6 189//6 
s 1
f 177//50 176//50 190//50 188//50 
s 2
f 191//16 185//16 187//16 192//16 
s 1
f 187//52 186//52 170//52 169//52 
s 2
f 174//16 192//16 187//16 169//16 
s off
f 132//52 131//52 123//52 122//52 
f 129//54 132//54 122//54 126//54 
f 130//50 129//50 126//50 128//50 
f 131//51 130//51 128//51 123//51 
f 144//50 143//50 135//50 134//50 
f 141//51 144//51 134//51 138//51 
f 142//52 141//52 138//52 140//52 
f 143//54 142//54 140//54 135//54 
f 156//52 155//52 147//52 146//52 
f 153//54 156//54 146//54 150//54 
f 154//50 153//50 150//50 152//50 
f 155//51 154//51 152//51 147//51 
f 168//51 167//51 159//51 158//51 
f 165//52 168//52 158//52 162//52 
f 166//54 165//54 162//54 164//54 
f 167//50 166//50 164//50 159//50 
s 1
f 171//52 132//52 122//52 170//52 
f 174//50 125//50 126//50 173//50 
s 4
f 132//51 129//51 126//51 122//51 
f 185//54 191//54 176//54 175//54 
s 1
f 130//51 141//51 138//51 128//51 
f 125//54 139//54 140//54 126//54 
s 4
f 139//50 137//50 138//50 140//50 
f 129//52 130//52 128//52 126//52 
s 1
f 141//52 156//52 146//52 138//52 
f 133//50 149//50 150//50 134//50 
s 4
f 149//51 145//51 146//51 150//51 
f 144//54 141//54 138//54 134//54 
s 1
f 154//51 168//51 158//51 152//51 
f 149//54 161//54 162//54 150//54 
s 4
f 161//50 157//50 158//50 162//50 
f 153//52 154//52 152//52 150//52 
s 1
f 181//52 165//52 162//52 180//52 
f 184//50 163//50 164//50 183//50 
s 4
f 165//51 166//51 164//51 162//51 
f 182//54 181//54 180//54 183//54 
s 1
f 178//52 189//52 186//52 175//52 
f 191//50 192//50 190//50 176//50 
f 192//50 174//50 173//50 190//50 
f 193//51 194//51 195//51 196//51 
s 2
f 197//16 198//16 199//16 200//16 
s 1
f 201//54 202//54 203//54 204//54 
s 2
f 205//6 206//6 207//6 208//6 
s 4
f 193//50 209//50 197//50 200//50 
f 198//52 210//52 194//52 199//52 
s 2
f 204//16 203//16 211//16 212//16 
f 196//6 195//6 213//6 214//6 
s 4
f 208//50 201//50 215//50 205//50 
f 203//52 202//52 216//52 211//52 
s 2
f 217//16 218//16 219//16 220//16 
f 221//6 222//6 223//6 224//6 
s 4
f 221//50 225//50 226//50 222//50 
f 219//52 227//52 228//52 220//52 
s 2
f 197//16 217//16 220//16 198//16 
s 4
f 220//52 228//52 210//52 198//52 
s 2
f 218//16 212//16 211//16 219//16 
s 4
f 211//52 216//52 227//52 219//52 
s 1
f 200//51 199//51 194//51 193//51 
f 208//54 207//54 202//54 201//54 
s 4
f 196//50 214//50 209//50 193//50 
f 213//52 195//52 194//52 210//52 
f 204//50 212//50 215//50 201//50 
f 207//52 206//52 216//52 202//52 
f 218//50 217//50 226//50 225//50 
f 224//52 223//52 228//52 227//52 
f 217//50 197//50 209//50 226//50 
f 212//50 218//50 225//50 215//50 
s off
f 225//54 221//54 224//54 227//54 
f 213//54 210//54 209//54 214//54 
f 216//6 215//6 225//6 227//6 
f 206//51 205//51 215//51 216//51 
f 223//51 222//51 226//51 228//51 
f 228//6 226//6 209//6 210//6 
s 1
f 229//52 230//52 231//52 232//52 
s 2
f 233//16 234//16 230//16 229//16 
s 1
f 235//50 236//50 234//50 233//50 
s 2
f 232//6 231//6 236//6 235//6 
s 4
f 232//51 235//51 233//51 229//51 
f 234//54 236//54 231//54 230//54 
# 278 polygons

#
# object ceiling
#

v  -71.3508 7.8408 43.1373
v  -71.3508 7.8408 -51.6340
v  71.1329 7.8408 -51.6340
v  71.1329 7.8408 43.1373
v  -71.3508 9.5837 43.1373
v  71.1329 9.5837 43.1373
v  71.1329 9.5837 -51.6340
v  -71.3508 9.5837 -51.6340
# 8 vertices

vn 0.0000 -1.0000 -0.0000
vn 0.0000 1.0000 -0.0000
vn 0.0000 0.0000 1.0000
vn 1.0000 0.0000 -0.0000
vn 0.0000 0.0000 -1.0000
vn -1.0000 0.0000 -0.0000
# 6 vertex normals

g ceiling
usemtl wire_115115115
s 2
f 237//56 238//56 239//56 240//56 
s 4
f 241//57 242//57 243//57 244//57 
s 8
f 237//58 240//58 242//58 241//58 
s 16
f 240//59 239//59 243//59 242//59 
s 32
f 239//60 238//60 244//60 243//60 
s 64
f 238//61 237//61 241//61 244//61 
# 6 polygons

