# 3ds Max Wavefront OBJ Exporter v0.97b - (c)2007 guruware
# File Created: 25.01.2015 11:23:30

mtllib mom.mtl

#
# object Box003
#

v  0.5222 0.0021 -1.5541
v  0.5222 0.0021 -1.2335
v  0.3985 0.0021 -1.2335
v  0.3985 0.0021 -1.5541
v  0.4939 1.0402 -1.3705
v  0.4390 1.3363 -1.3946
v  0.3294 1.3363 -1.3946
v  0.3294 1.0402 -1.3705
v  0.4939 1.0402 -1.5869
v  0.4390 1.3363 -1.5154
v  0.3294 1.3363 -1.5221
v  0.3294 1.5440 -1.5459
v  0.4891 1.5440 -1.5377
v  0.4891 1.5440 -1.3403
v  0.3294 1.0402 -1.5869
v  0.3294 1.7070 -1.4282
v  0.3294 1.5440 -1.3410
v  0.5041 1.7070 -1.4267
v  0.4602 0.5285 -1.3994
v  0.4602 0.5285 -1.5098
v  0.3916 0.5285 -1.5098
v  0.3916 0.5285 -1.3994
v  0.4818 0.0565 -1.5169
v  0.4818 0.0565 -1.3923
v  0.4044 0.0565 -1.5169
v  0.4044 0.0565 -1.3923
v  0.3520 1.7070 -1.4470
v  0.3516 1.7070 -1.4698
v  0.5041 1.7070 -1.4825
v  0.3294 1.7070 -1.4899
v  0.3296 1.7508 -1.4894
v  0.3516 1.7473 -1.4696
v  0.3520 1.7434 -1.4472
v  0.3296 1.7401 -1.4286
v  0.3074 1.7070 -1.4716
v  0.3074 1.7477 -1.4714
v  0.3077 1.7434 -1.4470
v  0.3077 1.7070 -1.4468
v  0.3294 1.7601 -1.5245
v  0.3851 1.7513 -1.4744
v  0.3861 1.7403 -1.4178
v  0.3294 1.7320 -1.3708
v  0.3294 1.8365 -1.5783
v  0.3963 1.8259 -1.5181
v  0.3976 1.8129 -1.4118
v  0.3294 1.8029 -1.3552
v  0.3851 1.9852 -1.4744
v  0.3294 1.9941 -1.5245
v  0.3294 1.9670 -1.3911
v  0.3861 1.9742 -1.4178
v  0.4076 1.8581 -1.5228
v  0.3294 1.8705 -1.5933
v  0.3294 1.8968 -1.5855
v  0.4081 1.8859 -1.5146
v  0.3294 1.8574 -1.3595
v  0.3294 1.8313 -1.3397
v  0.4091 1.8430 -1.4058
v  0.4096 1.8708 -1.4047
v  0.4086 1.9106 -1.5136
v  0.3294 1.9231 -1.5850
v  0.3294 1.8835 -1.3658
v  0.4101 1.8953 -1.4036
v  0.5383 1.6944 -1.4274
v  0.5383 1.6944 -1.4843
v  0.5060 1.6127 -1.5128
v  0.5081 1.6095 -1.4217
v  0.6240 1.6978 -1.4340
v  0.6240 1.6978 -1.4932
v  0.6200 1.6237 -1.5121
v  0.6216 1.6225 -1.4339
v  0.7768 1.7071 -1.4892
v  0.7768 1.7071 -1.4404
v  0.8647 1.7194 -1.4325
v  0.8647 1.7194 -1.4947
v  0.8387 1.6160 -1.5115
v  0.7403 1.6295 -1.5024
v  0.7403 1.6295 -1.4480
v  0.8387 1.6160 -1.4422
v  1.0484 1.6849 -1.4810
v  1.0484 1.6849 -1.4536
v  1.0482 1.6557 -1.4885
v  1.0482 1.6531 -1.4578
v  1.1094 1.6939 -1.4205
v  1.1094 1.6939 -1.5167
v  1.0998 1.6504 -1.5056
v  1.0998 1.6530 -1.4333
v  1.1706 1.6807 -1.4236
v  1.1706 1.6844 -1.5110
v  1.1740 1.6517 -1.5106
v  1.1740 1.6554 -1.4356
v  1.1380 1.6508 -1.3505
v  1.1532 1.6513 -1.3512
v  1.1529 1.6538 -1.3496
v  1.1394 1.6568 -1.3490
v  1.2509 1.6718 -1.5028
v  1.2509 1.6718 -1.4384
v  1.2524 1.6601 -1.4384
v  1.2524 1.6571 -1.5028
v  1.1126 1.6628 -1.4297
v  1.1171 1.6826 -1.4248
v  1.1614 1.6729 -1.4265
v  1.1625 1.6647 -1.4320
v  0.1365 0.0021 -1.5541
v  0.2602 0.0021 -1.5541
v  0.2602 0.0021 -1.2335
v  0.1365 0.0021 -1.2335
v  0.1648 1.0402 -1.3705
v  0.2197 1.3363 -1.3946
v  0.2197 1.3363 -1.5154
v  0.1648 1.0402 -1.5869
v  0.1696 1.5440 -1.5377
v  0.1696 1.5440 -1.3403
v  0.1546 1.7070 -1.4267
v  0.1986 0.5285 -1.5098
v  0.1986 0.5285 -1.3994
v  0.2672 0.5285 -1.5098
v  0.2672 0.5285 -1.3994
v  0.1769 0.0565 -1.5169
v  0.1769 0.0565 -1.3923
v  0.2543 0.0565 -1.5169
v  0.2543 0.0565 -1.3923
v  0.3068 1.7070 -1.4470
v  0.3072 1.7070 -1.4698
v  0.1546 1.7070 -1.4825
v  0.3072 1.7473 -1.4696
v  0.3291 1.7508 -1.4894
v  0.3291 1.7401 -1.4286
v  0.3068 1.7434 -1.4472
v  0.3514 1.7070 -1.4716
v  0.3514 1.7477 -1.4714
v  0.3510 1.7070 -1.4468
v  0.3510 1.7434 -1.4470
v  0.2736 1.7513 -1.4744
v  0.2726 1.7413 -1.4178
v  0.2624 1.8259 -1.5181
v  0.2611 1.8139 -1.4118
v  0.2736 1.9852 -1.4744
v  0.2726 1.9752 -1.4178
v  0.2511 1.8581 -1.5228
v  0.2506 1.8843 -1.5146
v  0.2492 1.8702 -1.4047
v  0.2497 1.8440 -1.4058
v  0.2501 1.9106 -1.5136
v  0.2486 1.8964 -1.4036
v  0.1204 1.6944 -1.4843
v  0.1204 1.6944 -1.4274
v  0.1527 1.6127 -1.5128
v  0.1506 1.6095 -1.4217
v  0.0347 1.6978 -1.4932
v  0.0347 1.6978 -1.4340
v  0.0387 1.6237 -1.5121
v  0.0371 1.6225 -1.4339
v  -0.1181 1.7071 -1.4892
v  -0.2060 1.7194 -1.4947
v  -0.2060 1.7194 -1.4325
v  -0.1181 1.7071 -1.4404
v  -0.0815 1.6295 -1.5024
v  -0.1799 1.6160 -1.5115
v  -0.0815 1.6295 -1.4480
v  -0.1799 1.6160 -1.4422
v  -0.3896 1.6849 -1.4810
v  -0.3896 1.6849 -1.4536
v  -0.3895 1.6557 -1.4885
v  -0.3895 1.6531 -1.4578
v  -0.4507 1.6939 -1.5167
v  -0.4507 1.6939 -1.4205
v  -0.4410 1.6504 -1.5056
v  -0.4410 1.6530 -1.4333
v  -0.5119 1.6844 -1.5110
v  -0.5119 1.6807 -1.4236
v  -0.5152 1.6517 -1.5106
v  -0.5152 1.6554 -1.4356
v  -0.4793 1.6508 -1.3505
v  -0.4807 1.6568 -1.3490
v  -0.4941 1.6538 -1.3496
v  -0.4945 1.6513 -1.3512
v  -0.5922 1.6718 -1.5028
v  -0.5936 1.6571 -1.5028
v  -0.5937 1.6601 -1.4384
v  -0.5921 1.6718 -1.4384
v  -0.4584 1.6826 -1.4248
v  -0.4538 1.6628 -1.4297
v  -0.5027 1.6729 -1.4265
v  -0.5038 1.6647 -1.4320
v  0.5266 1.0057 -1.3343
v  0.4608 1.3087 -1.3630
v  0.3294 1.3087 -1.3630
v  0.3294 1.0057 -1.3343
v  0.5266 1.0302 -1.5965
v  0.4608 1.3087 -1.5575
v  0.3294 1.3087 -1.5656
v  0.3294 1.5389 -1.5939
v  0.5208 1.5389 -1.5841
v  0.5208 1.5389 -1.2983
v  0.3294 1.0302 -1.5965
v  0.3294 1.7196 -1.4030
v  0.3294 1.5389 -1.2992
v  0.5389 1.7196 -1.4013
v  0.4861 0.6072 -1.3688
v  0.4861 0.6072 -1.5509
v  0.3294 0.6072 -1.5509
v  0.3294 0.6072 -1.3688
v  0.3565 1.7196 -1.4457
v  0.3560 1.7196 -1.4728
v  0.5389 1.7196 -1.5184
v  0.3294 1.7196 -1.4972
v  0.5798 1.7057 -1.4223
v  0.5798 1.7057 -1.4901
v  0.5411 1.6151 -1.5240
v  0.5436 1.6115 -1.4156
v  0.6825 1.7094 -1.4302
v  0.6825 1.7094 -1.5007
v  0.6778 1.6273 -1.5233
v  0.6796 1.6260 -1.4300
v  0.1321 1.0057 -1.3343
v  0.1979 1.3087 -1.3630
v  0.1979 1.3087 -1.5575
v  0.1321 1.0302 -1.5965
v  0.1379 1.5389 -1.5841
v  0.1379 1.5389 -1.2983
v  0.1199 1.7196 -1.4013
v  0.1726 0.6072 -1.5509
v  0.1726 0.6072 -1.3688
v  0.3023 1.7196 -1.4457
v  0.3028 1.7196 -1.4728
v  0.1199 1.7196 -1.5184
v  0.0789 1.7057 -1.4901
v  0.0789 1.7057 -1.4223
v  0.1177 1.6151 -1.5240
v  0.1151 1.6115 -1.4156
v  -0.0238 1.7094 -1.5007
v  -0.0238 1.7094 -1.4302
v  -0.0190 1.6273 -1.5233
v  -0.0209 1.6260 -1.4300
v  0.3294 1.7451 -1.5281
v  0.3294 1.8311 -1.5887
v  0.4048 1.8192 -1.5209
v  0.3921 1.7352 -1.4717
v  0.4062 1.8045 -1.4013
v  0.3933 1.7228 -1.4080
v  0.3921 1.9986 -1.4717
v  0.3294 2.0085 -1.5281
v  0.3294 1.9780 -1.3780
v  0.3933 1.9862 -1.4080
v  0.4175 1.8554 -1.5263
v  0.3294 1.8694 -1.6056
v  0.3294 1.8990 -1.5968
v  0.4180 1.8868 -1.5170
v  0.4191 1.8385 -1.3946
v  0.4197 1.8697 -1.3933
v  0.4186 1.9145 -1.5159
v  0.3294 1.9287 -1.5962
v  0.4202 1.8974 -1.3920
v  0.2666 1.7352 -1.4717
v  0.2540 1.8192 -1.5209
v  0.2655 1.7239 -1.4080
v  0.2526 1.8057 -1.4013
v  0.2666 1.9986 -1.4717
v  0.2655 1.9873 -1.4080
v  0.2413 1.8554 -1.5263
v  0.2407 1.8850 -1.5170
v  0.2396 1.8396 -1.3946
v  0.2391 1.8691 -1.3933
v  0.2401 1.9145 -1.5159
v  0.2385 1.8985 -1.3920
v  0.3889 1.8203 -1.4003
v  0.3789 1.7570 -1.4056
v  0.3294 1.9548 -1.3823
v  0.3789 1.9611 -1.4056
v  0.3994 1.8709 -1.3941
v  0.3989 1.8466 -1.3951
v  0.3998 1.8923 -1.3931
v  0.2798 1.7579 -1.4056
v  0.2698 1.8212 -1.4003
v  0.2798 1.9620 -1.4056
v  0.2598 1.8475 -1.3951
v  0.2594 1.8704 -1.3941
v  0.2589 1.8932 -1.3931
# 278 vertices

vn 0.0000 1.0000 -0.0000
vn -0.0000 -0.0811 -0.9967
vn 0.0009 0.0882 -0.9961
vn 0.0000 0.0856 -0.9963
vn 0.0000 -0.0811 -0.9967
vn -0.9832 -0.1823 0.0000
vn -0.9998 0.0187 0.0000
vn -0.9993 0.0370 -0.0000
vn -0.0594 -0.0623 0.9963
vn 0.0000 -0.0623 0.9981
vn 0.0000 -0.1056 0.9944
vn -0.0482 -0.1283 0.9906
vn -0.9721 0.2344 -0.0000
vn -0.0137 -0.2207 0.9752
vn 0.0000 -0.2135 0.9770
vn -0.0000 -0.4701 -0.8826
vn -0.0000 -0.1183 -0.9930
vn 0.0055 -0.1572 -0.9876
vn 0.0074 -0.4690 -0.8832
vn -0.9978 0.0659 -0.0000
vn 0.0000 0.1489 0.9888
vn 0.9927 0.1207 -0.0000
vn 0.0000 0.0565 -0.9984
vn -0.9989 -0.0458 -0.0000
vn 0.0000 -0.0150 0.9999
vn 0.9996 0.0272 -0.0000
vn 0.0000 -0.0150 -0.9999
vn -0.8029 -0.5962 -0.0000
vn 0.0000 -0.5649 0.8252
vn 0.9942 -0.1077 -0.0000
vn 0.0000 -0.9461 -0.3239
vn 0.0000 -1.0000 -0.0000
vn 0.0000 -0.3209 0.9471
vn -0.0400 -0.3171 0.9475
vn -0.6707 -0.0038 0.7418
vn -0.6399 -0.0051 -0.7685
vn -0.9998 0.0000 0.0182
vn 0.6348 -0.0078 0.7726
vn 0.6475 -0.0092 -0.7620
vn 0.9999 0.0000 -0.0143
vn -0.0764 0.9639 0.2549
vn -0.0292 0.9898 0.1394
vn -0.0793 0.9792 0.1868
vn -0.5414 0.4842 0.6873
vn -0.6437 0.1636 -0.7476
vn -0.9861 0.1620 0.0377
vn 0.0273 -0.9801 -0.1968
vn -0.6715 -0.2049 0.7121
vn -0.5199 -0.2755 -0.8086
vn -0.9998 0.0156 0.0149
vn -0.6187 -0.5098 0.5978
vn -0.3775 -0.2714 -0.8854
vn -0.9563 -0.2907 -0.0314
vn -0.6050 0.3208 0.7288
vn -0.6239 0.3742 -0.6861
vn -0.9383 0.3414 0.0543
vn -0.6702 -0.0145 0.7420
vn -0.4459 -0.0865 -0.8909
vn -0.9997 0.0198 0.0161
vn -0.3456 -0.9384 -0.0000
vn -0.0925 -0.3062 0.9475
vn -0.9649 0.2625 0.0101
vn -0.8189 -0.0624 -0.5705
vn 0.0394 -0.9992 -0.0000
vn 0.0613 -0.3038 0.9508
vn -0.1039 0.9942 0.0279
vn -0.0925 -0.0169 -0.9956
vn 0.1392 -0.9903 -0.0000
vn 0.0754 -0.1881 0.9793
vn 0.1359 0.9907 -0.0000
vn 0.0735 0.0695 -0.9949
vn -0.1849 -0.9828 -0.0000
vn -0.0895 -0.1616 0.9828
vn -0.1807 0.9832 0.0259
vn -0.0930 0.1200 -0.9884
vn 0.0608 -0.9982 -0.0000
vn -0.0385 -0.1970 0.9797
vn -0.0530 0.9986 0.0093
vn -0.0793 0.0688 -0.9945
vn 0.1467 -0.9892 -0.0000
vn 0.4247 -0.0124 0.9053
vn 0.0522 0.9986 -0.0000
vn 0.4408 0.1478 -0.8853
vn -0.1821 -0.9831 -0.0198
vn 0.0043 0.1481 0.9890
vn -0.0269 0.9987 -0.0429
vn -0.0096 0.3503 -0.9366
vn -0.9935 -0.1140 0.0025
vn -0.1344 -0.9906 -0.0242
vn -0.1002 -0.0013 0.9950
vn -0.0627 0.9969 -0.0483
vn -0.0971 0.2948 -0.9506
vn -0.0155 0.2828 -0.9591
vn 0.0331 0.3470 -0.9373
vn -0.0003 0.4621 -0.8868
vn -0.0465 0.3522 -0.9348
vn 0.9369 -0.1361 -0.3219
vn -0.2176 -0.9416 -0.2571
vn -0.9909 -0.0538 -0.1233
vn -0.0295 0.9868 0.1594
vn -0.0009 0.0882 -0.9961
vn 0.9832 -0.1823 0.0000
vn 0.9993 0.0370 -0.0000
vn 0.9998 0.0187 0.0000
vn 0.0594 -0.0623 0.9963
vn 0.0482 -0.1283 0.9906
vn 0.9721 0.2344 -0.0000
vn 0.0137 -0.2207 0.9752
vn -0.0074 -0.4690 -0.8832
vn -0.0055 -0.1572 -0.9876
vn 0.9978 0.0659 -0.0000
vn -0.9927 0.1207 -0.0000
vn 0.9989 -0.0458 -0.0000
vn -0.9996 0.0272 -0.0000
vn 0.8029 -0.5962 -0.0000
vn -0.9942 -0.1077 -0.0000
vn 0.0400 -0.3171 0.9475
vn 0.6707 -0.0038 0.7418
vn 0.6399 -0.0051 -0.7685
vn 0.9998 0.0000 0.0182
vn -0.6348 -0.0078 0.7726
vn -0.6475 -0.0092 -0.7620
vn -0.9999 0.0000 -0.0143
vn 0.0764 0.9639 0.2549
vn 0.0461 0.9899 0.1344
vn 0.0897 0.9806 0.1745
vn 0.5414 0.4842 0.6873
vn 0.6453 0.1635 -0.7463
vn 0.9862 0.1615 0.0356
vn -0.0352 -0.9808 -0.1917
vn 0.6723 -0.2104 0.7097
vn 0.5171 -0.2837 -0.8075
vn 0.9998 0.0165 0.0149
vn 0.6187 -0.5098 0.5978
vn 0.3741 -0.2713 -0.8868
vn 0.9562 -0.2912 -0.0279
vn 0.6050 0.3208 0.7288
vn 0.6269 0.3738 -0.6835
vn 0.9385 0.3415 0.0512
vn 0.6702 -0.0141 0.7420
vn 0.4461 -0.0839 -0.8910
vn 0.9997 0.0186 0.0158
vn 0.3456 -0.9384 -0.0000
vn 0.0925 -0.3062 0.9475
vn 0.9649 0.2625 0.0101
vn 0.8189 -0.0624 -0.5705
vn -0.0394 -0.9992 -0.0000
vn -0.0613 -0.3038 0.9508
vn 0.1039 0.9942 0.0279
vn 0.0925 -0.0169 -0.9956
vn -0.1392 -0.9903 -0.0000
vn -0.0754 -0.1881 0.9793
vn -0.1359 0.9907 -0.0000
vn -0.0735 0.0695 -0.9949
vn 0.1849 -0.9828 -0.0000
vn 0.0895 -0.1616 0.9828
vn 0.1807 0.9832 0.0259
vn 0.0930 0.1200 -0.9884
vn -0.0608 -0.9982 -0.0000
vn 0.0385 -0.1970 0.9797
vn 0.0530 0.9986 0.0093
vn 0.0793 0.0688 -0.9945
vn -0.1467 -0.9892 -0.0000
vn -0.4247 -0.0124 0.9053
vn -0.0522 0.9986 -0.0000
vn -0.4408 0.1478 -0.8853
vn 0.1821 -0.9831 -0.0198
vn -0.0043 0.1481 0.9890
vn 0.0269 0.9987 -0.0429
vn 0.0096 0.3503 -0.9366
vn 0.9935 -0.1140 0.0025
vn 0.1344 -0.9906 -0.0242
vn 0.1002 -0.0013 0.9950
vn 0.0627 0.9969 -0.0483
vn 0.0971 0.2948 -0.9506
vn 0.0155 0.2828 -0.9591
vn -0.0331 0.3470 -0.9373
vn 0.0003 0.4621 -0.8868
vn 0.0465 0.3522 -0.9348
vn -0.9369 -0.1361 -0.3219
vn 0.2176 -0.9416 -0.2571
vn 0.9909 -0.0538 -0.1233
vn 0.0295 0.9868 0.1594
vn -0.0000 -0.0943 -0.9955
vn 0.0009 0.0901 -0.9959
vn 0.0000 0.0879 -0.9961
vn 0.0000 -0.0943 -0.9955
vn -0.9751 -0.2215 -0.0131
vn -0.9736 -0.2272 -0.0212
vn -0.9999 0.0154 -0.0049
vn -0.9995 0.0323 -0.0000
vn -0.0591 -0.0134 0.9982
vn 0.0000 -0.0074 1.0000
vn 0.0000 -0.1798 0.9837
vn -0.0078 -0.1807 0.9835
vn -0.9677 0.2522 -0.0000
vn -0.0174 -0.1225 0.9923
vn 0.0000 -0.1104 0.9939
vn -0.0000 -0.4968 -0.8679
vn 0.0000 -0.1245 -0.9922
vn 0.0054 -0.1693 -0.9856
vn 0.0072 -0.4956 -0.8685
vn -0.9951 0.0982 0.0054
vn 0.0000 0.1073 0.9942
vn 0.0000 0.0862 -0.9963
vn -0.0000 -0.4117 0.9113
vn 0.0944 -0.3487 0.9325
vn -0.3224 -0.9466 -0.0000
vn -0.8048 -0.0490 0.5916
vn -0.9596 0.2811 0.0088
vn -0.9103 0.0146 -0.4136
vn 0.0364 -0.9993 -0.0000
vn 0.0605 -0.3241 0.9441
vn -0.0962 0.9950 0.0260
vn -0.0919 -0.0182 -0.9956
vn -0.0009 0.0901 -0.9959
vn 0.9751 -0.2215 -0.0131
vn 0.9995 0.0323 -0.0000
vn 0.9999 0.0154 -0.0049
vn 0.9736 -0.2272 -0.0212
vn 0.0591 -0.0134 0.9982
vn 0.0078 -0.1807 0.9835
vn 0.9677 0.2522 -0.0000
vn 0.0174 -0.1225 0.9923
vn -0.0072 -0.4956 -0.8685
vn -0.0054 -0.1693 -0.9856
vn 0.9951 0.0982 0.0054
vn -0.0944 -0.3487 0.9325
vn 0.3224 -0.9466 -0.0000
vn 0.8048 -0.0490 0.5916
vn 0.9597 0.2811 0.0088
vn 0.9103 0.0146 -0.4136
vn -0.0364 -0.9993 -0.0000
vn -0.0605 -0.3241 0.9441
vn 0.0962 0.9950 0.0260
vn 0.0919 -0.0182 -0.9956
vn 0.0174 0.0794 -0.9967
vn -0.4368 0.1632 -0.8846
vn 0.0436 0.0397 -0.9983
vn 0.0914 -0.1497 -0.9845
vn 0.0920 0.1601 -0.9828
vn 0.0439 0.0448 -0.9980
vn -0.0164 0.0796 -0.9967
vn 0.4392 0.1630 -0.8835
vn -0.0441 0.0421 -0.9981
vn -0.0932 -0.1491 -0.9844
vn -0.0902 0.1608 -0.9829
# 247 vertex normals

g Box003
usemtl wire_115115115
s 2
f 4//1 3//1 2//1 1//1 
s 8
f 8//5 7//4 6//3 5//2 
s 64
f 6//8 10//7 9//6 5//6 
s 32
f 13//12 12//11 11//10 10//9 
s 64
f 13//13 10//7 6//8 14//13 
s 32
f 10//9 11//10 15//15 9//14 
s 8
f 18//19 14//18 17//17 16//16 
s off
f 20//20 19//20 5//20 9//20 
f 15//21 21//21 20//21 9//21 
f 22//22 21//22 15//22 8//22 
f 19//23 22//23 8//23 5//23 
f 24//24 19//24 20//24 23//24 
f 23//25 20//25 21//25 25//25 
f 25//26 21//26 22//26 26//26 
f 24//27 26//27 22//27 19//27 
f 2//28 24//28 23//28 1//28 
f 1//29 23//29 25//29 4//29 
f 4//30 25//30 26//30 3//30 
f 2//31 3//31 26//31 24//31 
s 4
f 16//32 27//32 18//32 
f 30//32 29//32 28//32 
f 29//32 18//32 27//32 28//32 
s 32
f 29//34 30//33 12//11 13//12 
s 8
f 7//4 17//17 14//18 6//3 
s off
f 28//35 32//35 31//35 30//35 
f 16//36 34//36 33//36 27//36 
f 27//37 33//37 32//37 28//37 
f 30//38 31//38 36//38 35//38 
f 38//39 37//39 34//39 16//39 
f 35//40 36//40 37//40 38//40 
f 32//41 40//41 39//41 31//41 
f 34//42 42//42 41//42 33//42 
f 33//43 41//43 40//43 32//43 
f 40//44 44//44 43//44 39//44 
f 42//45 46//45 45//45 41//45 
f 41//46 45//46 44//46 40//46 
f 50//47 49//47 48//47 47//47 
f 54//48 53//48 52//48 51//48 
f 58//49 57//49 56//49 55//49 
f 58//50 54//50 51//50 57//50 
f 47//51 48//51 60//51 59//51 
f 50//52 62//52 61//52 49//52 
f 50//53 47//53 59//53 62//53 
f 52//54 43//54 44//54 51//54 
f 57//55 45//55 46//55 56//55 
f 51//56 44//56 45//56 57//56 
f 59//57 60//57 53//57 54//57 
f 62//58 58//58 55//58 61//58 
f 62//59 59//59 54//59 58//59 
f 29//60 64//60 63//60 18//60 
f 13//61 65//61 64//61 29//61 
f 14//62 66//62 65//62 13//62 
f 14//63 18//63 63//63 66//63 
f 68//64 67//64 63//64 64//64 
f 65//65 69//65 68//65 64//65 
f 70//66 69//66 65//66 66//66 
f 67//67 70//67 66//67 63//67 
f 74//68 73//68 72//68 71//68 
f 76//69 75//69 74//69 71//69 
f 78//70 75//70 76//70 77//70 
f 73//71 78//71 77//71 72//71 
f 80//72 73//72 74//72 79//72 
f 79//73 74//73 75//73 81//73 
f 81//74 75//74 78//74 82//74 
f 80//75 82//75 78//75 73//75 
f 71//76 72//76 67//76 68//76 
f 71//77 68//77 69//77 76//77 
f 77//78 76//78 69//78 70//78 
f 72//79 77//79 70//79 67//79 
f 79//80 84//80 83//80 80//80 
f 81//81 85//81 84//81 79//81 
f 82//82 86//82 85//82 81//82 
f 80//83 83//83 86//83 82//83 
f 84//84 88//84 87//84 83//84 
f 85//85 89//85 88//85 84//85 
f 86//86 90//86 89//86 85//86 
f 94//87 93//87 92//87 91//87 
f 98//88 97//88 96//88 95//88 
f 88//89 95//89 96//89 87//89 
f 89//90 98//90 95//90 88//90 
f 90//91 97//91 98//91 89//91 
f 87//92 96//92 97//92 90//92 
f 83//93 100//93 99//93 86//93 
f 87//94 101//94 100//94 83//94 
f 90//95 102//95 101//95 87//95 
f 86//96 99//96 102//96 90//96 
f 100//97 94//97 91//97 99//97 
f 101//98 93//98 94//98 100//98 
f 102//99 92//99 93//99 101//99 
f 99//100 91//100 92//100 102//100 
s 2
f 106//1 105//1 104//1 103//1 
s 8
f 108//101 7//4 8//5 107//5 
s 64
f 110//102 109//104 108//103 107//102 
s 32
f 11//10 12//11 111//106 109//105 
s 64
f 108//103 109//104 111//107 112//107 
s 32
f 15//15 11//10 109//105 110//108 
s 8
f 17//17 112//110 113//109 16//16 
s off
f 107//111 115//111 114//111 110//111 
f 114//21 116//21 15//21 110//21 
f 15//112 116//112 117//112 8//112 
f 8//23 117//23 115//23 107//23 
f 114//113 115//113 119//113 118//113 
f 116//25 114//25 118//25 120//25 
f 117//114 116//114 120//114 121//114 
f 117//27 121//27 119//27 115//27 
f 118//115 119//115 106//115 103//115 
f 120//29 118//29 103//29 104//29 
f 121//116 120//116 104//116 105//116 
f 121//31 105//31 106//31 119//31 
s 4
f 122//32 16//32 113//32 
f 124//32 30//32 123//32 
f 122//32 113//32 124//32 123//32 
s 32
f 12//11 30//33 124//117 111//106 
s 8
f 112//110 17//17 7//4 108//101 
s off
f 126//118 125//118 123//118 30//118 
f 128//119 127//119 16//119 122//119 
f 125//120 128//120 122//120 123//120 
f 130//121 126//121 30//121 129//121 
f 127//122 132//122 131//122 16//122 
f 132//123 130//123 129//123 131//123 
f 39//124 133//124 125//124 126//124 
f 134//125 42//125 127//125 128//125 
f 133//126 134//126 128//126 125//126 
f 43//127 135//127 133//127 39//127 
f 136//128 46//128 42//128 134//128 
f 135//129 136//129 134//129 133//129 
f 48//130 49//130 138//130 137//130 
f 52//131 53//131 140//131 139//131 
f 56//132 142//132 141//132 55//132 
f 139//133 140//133 141//133 142//133 
f 60//134 48//134 137//134 143//134 
f 61//135 144//135 138//135 49//135 
f 143//136 137//136 138//136 144//136 
f 135//137 43//137 52//137 139//137 
f 46//138 136//138 142//138 56//138 
f 136//139 135//139 139//139 142//139 
f 53//140 60//140 143//140 140//140 
f 55//141 141//141 144//141 61//141 
f 140//142 143//142 144//142 141//142 
f 146//143 145//143 124//143 113//143 
f 145//144 147//144 111//144 124//144 
f 147//145 148//145 112//145 111//145 
f 146//146 113//146 112//146 148//146 
f 146//147 150//147 149//147 145//147 
f 149//148 151//148 147//148 145//148 
f 147//149 151//149 152//149 148//149 
f 148//150 152//150 150//150 146//150 
f 156//151 155//151 154//151 153//151 
f 154//152 158//152 157//152 153//152 
f 157//153 158//153 160//153 159//153 
f 159//154 160//154 155//154 156//154 
f 154//155 155//155 162//155 161//155 
f 158//156 154//156 161//156 163//156 
f 160//157 158//157 163//157 164//157 
f 160//158 164//158 162//158 155//158 
f 150//159 156//159 153//159 149//159 
f 151//160 149//160 153//160 157//160 
f 151//161 157//161 159//161 152//161 
f 152//162 159//162 156//162 150//162 
f 166//163 165//163 161//163 162//163 
f 165//164 167//164 163//164 161//164 
f 167//165 168//165 164//165 163//165 
f 168//166 166//166 162//166 164//166 
f 170//167 169//167 165//167 166//167 
f 169//168 171//168 167//168 165//168 
f 171//169 172//169 168//169 167//169 
f 176//170 175//170 174//170 173//170 
f 180//171 179//171 178//171 177//171 
f 180//172 177//172 169//172 170//172 
f 177//173 178//173 171//173 169//173 
f 178//174 179//174 172//174 171//174 
f 179//175 180//175 170//175 172//175 
f 182//176 181//176 166//176 168//176 
f 181//177 183//177 170//177 166//177 
f 183//178 184//178 172//178 170//178 
f 184//179 182//179 168//179 172//179 
f 173//180 174//180 181//180 182//180 
f 174//181 175//181 183//181 181//181 
f 175//182 176//182 184//182 183//182 
f 176//183 173//183 182//183 184//183 
s 8
f 188//187 187//186 186//185 185//184 
s 64
f 186//191 190//190 189//189 185//188 
s 32
f 193//195 192//194 191//193 190//192 
s 64
f 193//196 190//190 186//191 194//196 
s 32
f 190//192 191//193 195//198 189//197 
s 8
f 198//202 194//201 197//200 196//199 
s off
f 200//203 199//203 185//203 189//203 
f 195//204 201//204 200//204 189//204 
f 199//205 202//205 188//205 185//205 
s 4
f 196//32 203//32 198//32 
f 206//32 205//32 204//32 
f 205//32 198//32 203//32 204//32 
s 32
f 205//207 206//206 192//194 193//195 
s 8
f 187//186 197//200 194//201 186//185 
s off
f 205//208 208//208 207//208 198//208 
f 193//209 209//209 208//209 205//209 
f 194//210 210//210 209//210 193//210 
f 194//211 198//211 207//211 210//211 
f 212//212 211//212 207//212 208//212 
f 209//213 213//213 212//213 208//213 
f 214//214 213//214 209//214 210//214 
f 211//215 214//215 210//215 207//215 
s 8
f 216//216 187//186 188//187 215//187 
s 64
f 218//220 217//219 216//218 215//217 
s 32
f 191//193 192//194 219//222 217//221 
s 64
f 216//218 217//219 219//223 220//223 
s 32
f 195//198 191//193 217//221 218//224 
s 8
f 197//200 220//226 221//225 196//199 
s off
f 215//227 223//227 222//227 218//227 
f 222//204 201//204 195//204 218//204 
f 188//205 202//205 223//205 215//205 
s 4
f 224//32 196//32 221//32 
f 226//32 206//32 225//32 
f 224//32 221//32 226//32 225//32 
s 32
f 192//194 206//206 226//228 219//222 
s 8
f 220//226 197//200 187//186 216//216 
s off
f 228//229 227//229 226//229 221//229 
f 227//230 229//230 219//230 226//230 
f 229//231 230//231 220//231 219//231 
f 228//232 221//232 220//232 230//232 
f 228//233 232//233 231//233 227//233 
f 231//234 233//234 229//234 227//234 
f 229//235 233//235 234//235 230//235 
f 230//236 234//236 232//236 228//236 
f 238//44 237//44 236//44 235//44 
f 240//46 239//46 237//46 238//46 
f 244//47 243//47 242//47 241//47 
f 248//48 247//48 246//48 245//48 
f 250//50 248//50 245//50 249//50 
f 241//51 242//51 252//51 251//51 
f 244//53 241//53 251//53 253//53 
f 246//54 236//54 237//54 245//54 
f 245//56 237//56 239//56 249//56 
f 251//57 252//57 247//57 248//57 
f 253//59 251//59 248//59 250//59 
f 236//127 255//127 254//127 235//127 
f 255//129 257//129 256//129 254//129 
f 242//130 243//130 259//130 258//130 
f 246//131 247//131 261//131 260//131 
f 260//133 261//133 263//133 262//133 
f 252//134 242//134 258//134 264//134 
f 264//136 258//136 259//136 265//136 
f 255//137 236//137 246//137 260//137 
f 257//139 255//139 260//139 262//139 
f 247//140 252//140 264//140 261//140 
f 261//142 264//142 265//142 263//142 
f 267//237 266//237 239//237 240//237 
f 269//238 268//238 243//238 244//238 
f 271//239 270//239 250//239 249//239 
f 272//240 269//240 244//240 253//240 
f 266//241 271//241 249//241 239//241 
f 270//242 272//242 253//242 250//242 
f 274//243 273//243 256//243 257//243 
f 268//244 275//244 259//244 243//244 
f 277//245 276//245 262//245 263//245 
f 275//246 278//246 265//246 259//246 
f 276//247 274//247 257//247 262//247 
f 278//245 277//245 263//245 265//245 
# 250 polygons - 8 triangles

